<svg width="102" height="102" viewBox="0 0 102 102" fill="none" xmlns="http://www.w3.org/2000/svg">
<path d="M67.9166 55.208H78.4375C80.1116 55.208 81.7172 54.5429 82.9011 53.3591C84.0849 52.1753 84.75 50.5697 84.75 48.8955C84.75 47.2213 84.0849 45.6157 82.9011 44.4319C81.7172 43.2481 80.1116 42.583 78.4375 42.583H74.2291C72.5549 42.583 70.9493 41.9179 69.7655 40.7341C68.5817 39.5503 67.9166 37.9447 67.9166 36.2705C67.9166 34.5963 68.5817 32.9907 69.7655 31.8069C70.9493 30.6231 72.5549 29.958 74.2291 29.958H84.75" stroke="#E4B363" stroke-width="5" stroke-linecap="round" stroke-linejoin="round"/>
<path d="M76.3333 29.9583V25.75M76.3333 59.4167V55.2083M51.0833 63.625H34.2499M51.0833 46.7917H34.2499" stroke="#E4B363" stroke-width="5" stroke-linecap="round" stroke-linejoin="round"/>
<path d="M59.5 13.125H21.625C20.5088 13.125 19.4384 13.5684 18.6492 14.3576C17.86 15.1468 17.4166 16.2172 17.4166 17.3333V88.875L27.2641 84.6667L37.0695 88.875L46.875 84.6667L56.6804 88.875L66.4858 84.6667L76.3333 88.875V76.25" stroke="#204536" stroke-width="5" stroke-linecap="round" stroke-linejoin="round"/>
</svg>
