<svg width="102" height="102" viewBox="0 0 102 102" fill="none" xmlns="http://www.w3.org/2000/svg">
<path fill-rule="evenodd" clip-rule="evenodd" d="M50.5833 21.541C31.4195 21.541 15.8646 37.0959 15.8646 56.2598C15.8646 75.4237 31.4195 90.9785 50.5833 90.9785C69.7472 90.9785 85.3021 75.4237 85.3021 56.2598C85.3021 37.0959 69.7472 21.541 50.5833 21.541ZM9.55209 56.2598C9.55209 33.6096 27.9332 15.2285 50.5833 15.2285C73.2334 15.2285 91.6146 33.6096 91.6146 56.2598C91.6146 78.9099 73.2334 97.291 50.5833 97.291C27.9332 97.291 9.55209 78.9099 9.55209 56.2598Z" fill="#204536"/>
<path fill-rule="evenodd" clip-rule="evenodd" d="M34.8021 7.86426C34.8021 9.6074 36.2152 11.0205 37.9583 11.0205H63.2083C64.9514 11.0205 66.3646 9.6074 66.3646 7.86426C66.3646 6.12113 64.9514 4.70801 63.2083 4.70801L37.9583 4.70801C36.2152 4.70801 34.8021 6.12113 34.8021 7.86426Z" fill="#204536"/>
<path fill-rule="evenodd" clip-rule="evenodd" d="M50.5833 32.0625C52.3264 32.0625 53.7396 33.4756 53.7396 35.2188V56.2604C53.7396 58.0035 52.3264 59.4167 50.5833 59.4167C48.8403 59.4167 47.4271 58.0035 47.4271 56.2604V35.2188C47.4271 33.4756 48.8403 32.0625 50.5833 32.0625Z" fill="#204536"/>
</svg>
