<svg width="125" height="120" viewBox="0 0 125 120" fill="none" xmlns="http://www.w3.org/2000/svg">
<g clip-path="url(#clip0_127_620)">
<path d="M103.214 30.8333H85.2143M94.2143 22.5V39.1667" stroke="#204536" stroke-width="5" stroke-linecap="round" stroke-linejoin="round"/>
<path d="M78.8693 51.6667C77.2472 55.1079 74.6509 58.0793 71.355 60.2666C68.059 62.4539 64.1858 63.7758 60.1452 64.0924C56.1045 64.4091 52.0465 63.7087 48.4004 62.0654C44.7543 60.4222 41.6556 57.897 39.432 54.7571C37.2084 51.6172 35.9426 47.9793 35.7685 44.228C35.5943 40.4767 36.5183 36.7516 38.4427 33.4466C40.3671 30.1416 43.2204 27.3796 46.7007 25.4527C50.1811 23.5258 54.1592 22.5056 58.2143 22.5C61.3079 22.5031 64.3689 23.0841 67.2143 24.2083" stroke="#E4B463" stroke-width="5" stroke-linecap="round" stroke-linejoin="round"/>
<path d="M53.7143 64.1665H62.7143C71.0686 64.1665 79.0808 67.2394 84.9882 72.7092C90.8956 78.179 94.2143 85.5977 94.2143 93.3332C94.2143 94.4382 93.7402 95.498 92.8963 96.2795C92.0524 97.0609 90.9078 97.4998 89.7143 97.4998H26.7143C25.5208 97.4998 24.3762 97.0609 23.5323 96.2795C22.6884 95.498 22.2143 94.4382 22.2143 93.3332C22.2143 85.5977 25.533 78.179 31.4404 72.7092C37.3478 67.2394 45.36 64.1665 53.7143 64.1665Z" stroke="#204536" stroke-width="5" stroke-linecap="round" stroke-linejoin="round"/>
</g>
<defs>
<clipPath id="clip0_127_620">
<rect width="108" height="100" fill="white" transform="translate(8.71429 10)"/>
</clipPath>
</defs>
</svg>
