<svg width="124" height="121" viewBox="0 0 124 121" fill="none" xmlns="http://www.w3.org/2000/svg">
<g filter="url(#filter0_d_127_614)">
<path d="M32.5417 98.3752V89.9585H24.125M32.5417 98.3752L24.125 89.9585M32.5417 98.3752H95.6667C96.7828 98.3752 97.8532 97.9318 98.6424 97.1426C99.4316 96.3534 99.875 95.283 99.875 94.1668V31.0418C99.875 29.9257 99.4316 28.8553 98.6424 28.0661C97.8532 27.2769 96.7828 26.8335 95.6667 26.8335H28.3333C27.2172 26.8335 26.1468 27.2769 25.3576 28.0661C24.5684 28.8553 24.125 29.9257 24.125 31.0418V89.9585" stroke="#E4B363" stroke-width="5" stroke-linecap="round" stroke-linejoin="round"/>
<path d="M40.9583 31.0417V22.625M62 31.0417V22.625M83.0417 31.0417V22.625M28.3333 26.8333H95.6667C96.7828 26.8333 97.8532 27.2767 98.6424 28.0659C99.4316 28.8551 99.875 29.9255 99.875 31.0417V47.875H24.125V31.0417C24.125 29.9255 24.5684 28.8551 25.3576 28.0659C26.1468 27.2767 27.2172 26.8333 28.3333 26.8333Z" stroke="#204536" stroke-width="5" stroke-linecap="round" stroke-linejoin="round"/>
</g>
<defs>
<filter id="filter0_d_127_614" x="17.625" y="20.125" width="88.75" height="88.75" filterUnits="userSpaceOnUse" color-interpolation-filters="sRGB">
<feFlood flood-opacity="0" result="BackgroundImageFix"/>
<feColorMatrix in="SourceAlpha" type="matrix" values="0 0 0 0 0 0 0 0 0 0 0 0 0 0 0 0 0 0 127 0" result="hardAlpha"/>
<feOffset dy="4"/>
<feGaussianBlur stdDeviation="2"/>
<feComposite in2="hardAlpha" operator="out"/>
<feColorMatrix type="matrix" values="0 0 0 0 0 0 0 0 0 0 0 0 0 0 0 0 0 0 0.25 0"/>
<feBlend mode="normal" in2="BackgroundImageFix" result="effect1_dropShadow_127_614"/>
<feBlend mode="normal" in="SourceGraphic" in2="effect1_dropShadow_127_614" result="shape"/>
</filter>
</defs>
</svg>
