<svg xmlns="http://www.w3.org/2000/svg" width="20" height="20" fill="#111827" viewBox="0 0 24 24"><path d="M22.46 6c-.77.35-1.6.58-2.46.69a4.27 4.27 0 001.88-2.36 8.47 8.47 0 01-2.7 1.03A4.24 4.24 0 0015.5 4c-2.36 0-4.27 1.9-4.27 4.25 0 .33.04.65.1.96A12.03 12.03 0 013 5.14a4.25 4.25 0 001.32 5.67 4.19 4.19 0 01-1.93-.53v.06c0 2.07 1.48 3.78 3.43 4.18a4.28 4.28 0 01-1.12.15c-.27 0-.54-.03-.8-.08a4.25 4.25 0 003.96 2.94A8.5 8.5 0 012 19.54a12 12 0 006.5 1.9c7.81 0 12.08-6.47 12.08-12.09v-.55A8.5 8.5 0 0022.46 6z"/></svg>
